<?xml version="1.0" encoding="utf-8"?>
<!-- Generator: Adobe Illustrator 26.1.0, SVG Export Plug-In . SVG Version: 6.00 Build 0)  -->
<svg version="1.1" xmlns="http://www.w3.org/2000/svg" xmlns:xlink="http://www.w3.org/1999/xlink" x="0px" y="0px"
	 viewBox="0 0 1000 170" style="enable-background:new 0 0 1000 170;" xml:space="preserve">
<style type="text/css">
	.st0{fill:#FFFFFF;}
	.st1{fill:none;stroke:#FFFFFF;stroke-width:8;stroke-miterlimit:10;}
	.st2{fill:none;stroke:#FF00FF;stroke-width:10;stroke-miterlimit:10;}
	.st3{fill:none;stroke:#FF00FF;stroke-width:28;stroke-linecap:round;stroke-linejoin:round;stroke-miterlimit:10;}
</style>
<g id="base">
	<path class="st0" d="M69.97,44.65c0-4.02-1.34-7.1-3.75-9.25c-5.63,19.43-24.12,41.14-40.6,41.14c-11.26,0-17.96-6.16-17.96-16.88
		c0-17.69,24.92-35.38,47.57-36.45c-0.13-3.35-0.54-4.82-1.07-5.76c-0.54-0.8-0.8-1.61-0.8-2.14c0-2.55,2.55-4.69,5.63-4.69
		c4.69,0,8.98,4.69,8.98,13.67v0.4c9.65,3.08,15.54,10.45,15.54,20.1c0,22.65-29.88,44.76-29.88,65.66c0,7.5,5.49,11.52,11.39,11.52
		c15.95,0,33.37-24.92,45.83-50.92c4.02-8.58,9.11-20.77,11.93-26.8c3.22-6.83,6.3-10.18,9.92-10.18c3.48,0,5.63,2.41,5.63,5.9
		c0,4.56-2.41,12.6-10.18,25.06c-6.43,14.34-11.52,25.59-11.52,41.14c0,9.92,4.82,15.54,11.79,15.54c7.77,0,15.28-6.97,27.34-24.39
		c13.4-19.43,24.79-46.9,24.79-66.6c0-3.35-0.8-3.75-0.8-5.63c0-2.41,3.08-5.49,6.7-5.49c4.02,0,7.91,3.89,7.91,11.12
		c0,23.32-12.46,53.07-28.27,74.51c-13.13,17.96-25.46,27.47-39.53,27.47c-13,0-22.91-9.51-22.91-26.67v-0.67
		C91.28,121.7,77.07,132.69,63,132.69c-13.53,0-23.32-8.84-23.32-22.65C39.69,87.67,69.97,65.42,69.97,44.65z M54.02,32.59
		c-16.35,1.34-33.63,14.34-33.63,27.6c0,3.62,2.14,6.03,5.63,6.03C37.27,66.22,50.14,48,54.02,32.59z M214.42,71.99
		c5.63,0,9.65,2.28,12.19,6.83c1.74-4.15,5.36-6.83,8.58-6.83c3.22,0,5.09,1.88,5.09,4.56c0,1.88-1.61,4.96-5.49,11.26
		c-5.09,11.26-9.11,20.77-9.11,27.61c0,4.15,1.74,6.03,3.89,6.03c5.63,0,12.73-8.58,18.76-17.96c1.74-2.81,3.35-4.82,5.9-4.82
		c2.68,0,4.96,1.88,4.96,4.29c0,0.94-0.27,1.88-0.8,2.68c-8.17,12.6-18.89,23.72-30.42,23.72c-7.37,0-13.53-4.02-14.61-11.52
		c-5.9,6.83-12.86,11.52-20.1,11.52c-10.18,0-17.42-6.03-17.42-17.15C175.83,92.22,195.93,71.99,214.42,71.99z M196.06,120.76
		c5.36,0,10.85-5.63,15.95-13.13c4.56-6.97,7.64-13.13,10.72-20.77c-0.54-4.02-3.48-6.43-8.58-6.43
		c-10.45,0-24.39,17.02-24.39,32.29C189.76,118.08,192.44,120.76,196.06,120.76z M287.99,129.34c-10.59,0-17.29-6.57-21.84-18.76
		c-0.4-1.21-0.54-2.01-0.54-2.95c0-2.55,1.61-4.29,5.09-4.96c13-2.55,24.52-12.19,24.52-20.37c0-1.34-0.94-2.14-2.68-2.14
		c-6.43,0-17.82,7.24-23.85,14.61c-4.82,5.9-9.51,17.29-12.46,26.67c-1.21,3.75-2.68,7.91-7.91,7.91c-2.28,0-4.56-1.47-4.56-4.56
		c0-1.21,0.13-1.88,0.54-3.22c8.58-25.06,20.77-54.14,30.02-75.98c1.34-3.22,4.82-4.69,7.5-4.69c3.48,0,5.49,2.01,5.49,4.96
		c0,2.81-2.55,7.77-7.24,15.28l-8.44,20.23c7.37-5.49,15.68-9.38,22.24-9.38c8.17,0,13.67,4.15,13.67,10.85
		c0,10.05-13.4,20.77-29.08,25.06c2.41,8.04,6.83,13.13,11.39,13.13c6.03,0,14.07-8.17,20.23-17.55c1.74-2.81,3.35-4.82,5.9-4.82
		c2.68,0,4.96,1.88,4.96,4.29c0,0.94-0.27,1.88-0.8,2.68C311.97,118.49,301.79,129.34,287.99,129.34z M347.35,71.99
		c5.63,0,9.65,2.28,12.19,6.83c1.74-4.15,5.36-6.83,8.58-6.83c3.22,0,5.09,1.88,5.09,4.56c0,1.88-1.61,4.96-5.49,11.26
		c-5.09,11.26-9.11,20.77-9.11,27.61c0,4.15,1.74,6.03,3.89,6.03c5.63,0,12.73-8.58,18.76-17.96c1.74-2.81,3.35-4.82,5.9-4.82
		c2.68,0,4.96,1.88,4.96,4.29c0,0.94-0.27,1.88-0.8,2.68c-8.17,12.6-18.89,23.72-30.42,23.72c-7.37,0-13.53-4.02-14.61-11.52
		c-5.9,6.83-12.86,11.52-20.1,11.52c-10.18,0-17.42-6.03-17.42-17.15C308.75,92.22,328.85,71.99,347.35,71.99z M328.99,120.76
		c5.36,0,10.85-5.63,15.95-13.13c4.56-6.97,7.64-13.13,10.72-20.77c-0.54-4.02-3.48-6.43-8.58-6.43
		c-10.45,0-24.39,17.02-24.39,32.29C322.69,118.08,325.37,120.76,328.99,120.76z M425.33,129.34c-8.71,0-14.2-5.09-14.2-13.67
		c0-10.99,12.19-24.12,12.19-32.83c0-1.34-0.94-2.01-2.55-2.01c-5.76,0-14.47,8.84-20.5,16.08c-5.36,6.3-11.39,17.55-14.47,27.2
		c-0.8,2.55-2.28,5.23-6.3,5.23c-2.55,0-5.09-1.47-5.09-4.96c0-1.21,0.13-1.88,0.54-3.22c4.69-14.47,10.99-30.55,16.08-42.75
		c1.61-3.89,4.29-5.76,7.5-5.76c3.35,0,5.36,2.01,5.36,4.69c0,1.07-0.67,2.55-1.74,4.56l-1.88,4.56
		c7.24-7.91,15.95-14.47,22.91-14.47c7.37,0,12.46,4.56,12.46,11.39c0,10.99-12.33,22.38-12.33,33.23c0,3.08,1.47,4.82,3.62,4.82
		c5.63,0,12.86-8.58,18.89-17.96c1.74-2.81,3.35-4.82,5.9-4.82c2.68,0,4.96,1.88,4.96,4.29c0,0.94-0.27,1.88-0.8,2.68
		C447.71,118.22,436.86,129.34,425.33,129.34z M481.61,117.82c-5.9,6.83-12.86,11.52-20.1,11.52c-10.18,0-17.42-6.03-17.42-17.15
		c0-19.83,20.1-40.2,38.59-40.2c5.63,0,9.65,2.28,12.19,6.83c1.74-4.15,5.36-6.83,8.58-6.83c3.22,0,5.09,1.88,5.09,4.56
		c0,1.88-1.61,4.96-5.49,11.26c-5.09,11.26-9.11,20.77-9.11,27.61c0,4.02,1.61,5.9,3.62,5.9c2.28,0,4.69-2.28,6.57-5.23
		c1.47-2.41,3.08-3.22,4.69-3.22c1.88,0,3.48,1.34,3.48,3.35c0,4.42-6.97,13.13-16.08,13.13
		C488.85,129.34,482.68,125.32,481.61,117.82z M464.33,120.76c5.36,0,10.85-5.63,15.95-13.13c4.56-6.97,7.64-13.13,10.72-20.77
		c-0.54-4.02-3.48-6.43-8.58-6.43c-10.45,0-24.39,17.15-24.39,32.29C458.03,118.08,460.71,120.76,464.33,120.76z M618.16,103.48
		c1.74-2.81,3.35-4.82,5.9-4.82c2.68,0,4.96,1.88,4.96,4.29c0,0.94-0.27,1.88-0.8,2.68c-11.66,17.96-31.89,29.62-54,29.62
		c-23.99,0-41.67-14.07-41.67-38.59c0-39.4,39.53-73.7,72.09-73.7c3.62,0,6.97,0.4,10.05,1.07c6.83-4.96,14.47-8.04,20.37-8.04
		c4.15,0,6.3,2.01,6.3,5.36c0,2.41-1.61,3.35-6.83,4.96c-2.14,0.67-4.56,1.74-7.24,3.22c5.9,4.56,8.98,10.99,8.98,18.36
		c0,13-9.65,21.98-20.77,21.98c-10.99,0-18.36-6.43-18.36-17.02c0-6.97,2.95-13.53,7.5-19.3c-26.13,0.13-58.16,29.88-58.16,63.12
		c0,17.29,11.26,27.87,28.68,27.87C589.88,124.52,608.91,117.68,618.16,103.48z M617.62,36.61c-4.42,4.42-7.77,10.05-7.77,16.21
		c0,4.42,2.28,6.7,5.76,6.7c4.69,0,8.17-5.76,8.17-11.39C623.79,43.04,621.64,39.16,617.62,36.61z M667.6,129.34
		c-8.71,0-14.2-5.09-14.2-13.67c0-10.99,12.19-24.12,12.19-32.83c0-1.21-0.94-2.01-2.55-2.01c-5.76,0-14.47,8.84-20.5,16.08
		c-5.36,6.3-11.39,17.55-14.47,27.2c-0.8,2.55-2.28,5.23-6.3,5.23c-2.55,0-5.09-1.47-5.09-4.96c0-1.21,0.13-1.88,0.54-3.22
		c8.17-25.19,19.97-52.93,28.94-74.24c1.74-4.02,4.56-6.03,7.91-6.03c3.48,0,5.49,2.01,5.49,4.69c0,1.88-1.34,5.36-6.3,13.53
		l-11.52,28.14c7.37-8.17,16.35-15.28,23.58-15.28c7.1,0,12.6,4.56,12.6,11.39c0,10.99-12.33,22.38-12.33,33.23
		c0,3.08,1.47,4.82,3.62,4.82c5.63,0,12.86-8.58,18.89-17.96c1.74-2.81,3.35-4.82,5.9-4.82c2.68,0,4.96,1.88,4.96,4.29
		c0,0.94-0.27,1.88-0.8,2.68C689.98,118.22,679.12,129.34,667.6,129.34z M701.23,129.34c-9.25,0-15.28-4.96-15.28-14.87
		c0-8.98,5.36-21.84,10.18-31.09c4.56-8.71,7.91-11.39,11.39-11.39c3.08,0,5.09,1.88,5.09,4.56c0,2.14-1.74,5.9-6.83,14.07
		c-4.56,9.51-7.5,17.55-7.5,24.12c0,4.82,2.01,6.7,4.56,6.7c5.63,0,12.86-8.58,18.89-17.96c1.74-2.81,3.35-4.82,5.9-4.82
		c2.68,0,4.96,1.88,4.96,4.29c0,0.94-0.27,1.88-0.8,2.68C723.61,118.22,712.76,129.34,701.23,129.34z M717.31,50.68
		c4.15,0,6.83,2.41,6.83,6.3c0,3.62-3.22,8.71-9.25,8.71c-4.02,0-7.1-2.41-7.1-6.57C707.8,54.7,712.36,50.68,717.31,50.68z
		 M756.84,135.91c-7.1,16.88-18.36,29.35-31.49,29.35c-8.71,0-15.95-4.69-15.95-11.79c0-11.79,13.27-15.68,37.12-22.51
		c1.61-4.15,2.68-7.64,3.75-10.85c-5.09,5.63-10.59,9.25-16.21,9.25c-8.71,0-14.34-5.09-14.34-14.87c0-8.84,5.63-21.71,10.45-31.09
		c4.42-8.71,7.5-11.39,11.39-11.39c3.08,0,5.09,1.88,5.09,4.56c0,2.14-1.74,5.9-6.83,14.07c-4.56,9.51-7.64,17.55-7.64,24.12
		c0,4.29,2.28,5.9,4.02,5.9c4.96,0,9.92-5.63,15.01-13c4.69-6.7,9.11-16.88,12.73-25.33c3.48-8.17,6.57-10.32,10.45-10.32
		c3.08,0,5.09,1.88,5.09,4.56c0,2.14-1.74,5.76-6.7,13.67c-3.08,7.5-6.3,18.63-8.44,24.79l-3.48,9.92
		c8.71-5.09,16.75-13,22.24-21.44c1.74-2.81,3.35-4.82,5.9-4.82c2.68,0,4.96,1.88,4.96,4.29c0,0.94-0.27,1.88-0.8,2.68
		C784.98,118.35,774.93,129.07,756.84,135.91z M743.04,139.79c-13.94,4.02-21.98,7.37-21.98,13.67c0,2.68,2.01,4.02,4.42,4.02
		C730.98,157.48,737.95,150.65,743.04,139.79z M832.02,122.77c-3.22,0-6.3-0.4-8.84-1.07c-5.9,4.69-12.86,7.64-19.83,7.64
		c-12.33,0-21.17-6.7-21.17-19.43c0-20.23,19.7-37.92,36.58-37.92c13.13,0,20.9,6.83,20.9,18.63c0,8.31-3.75,16.88-9.38,23.99
		c0.94,0.13,1.88,0.27,3.08,0.27c5.49,0,10.99-3.35,16.21-11.39c1.74-2.81,3.35-4.82,5.9-4.82c2.68,0,4.96,1.88,4.96,4.29
		c0,0.94-0.27,1.88-0.8,2.68C851.98,117.28,842.74,122.77,832.02,122.77z M818.48,80.83c-9.25,0-22.38,14.61-22.38,29.48
		c0,6.83,3.89,10.18,8.71,10.18c3.35,0,6.7-1.61,9.78-4.15c-0.4-0.67-0.54-1.34-0.54-1.88c0-3.35,2.95-5.76,6.83-6.03
		c3.22-5.36,5.23-11.93,5.23-18.09C826.12,83.78,823.04,80.83,818.48,80.83z M886.69,71.99c5.23,0,9.11,2.01,11.66,6.03
		c3.89-10.18,9.51-23.85,12.6-30.95c2.01-4.29,5.63-6.16,8.58-6.16c3.08,0,4.96,1.88,4.96,4.29c0,2.95-2.01,7.91-7.5,17.02
		c-3.22,7.24-7.37,17.02-10.59,25.59c-5.09,13-8.44,22.65-8.44,27.61c0,4.15,1.74,6.03,3.89,6.03c5.63,0,12.73-8.58,18.76-17.96
		c1.74-2.81,3.35-4.82,5.9-4.82c2.68,0,4.96,1.88,4.96,4.29c0,0.94-0.27,1.88-0.8,2.68c-8.17,12.6-16.75,23.72-30.42,23.72
		c-7.37,0-13.53-4.02-14.61-11.52c-5.9,6.83-12.86,11.52-20.1,11.52c-10.18,0-17.42-6.03-17.42-17.15
		C848.09,92.36,868.19,71.99,886.69,71.99z M868.33,120.76c5.36,0,10.85-5.63,15.95-13.13c4.56-6.97,7.64-13.13,10.72-20.77
		c-0.54-4.02-3.48-6.43-8.58-6.43c-10.45,0-24.39,17.15-24.39,32.29C862.03,118.08,864.71,120.76,868.33,120.76z M956.5,117.82
		c-5.9,6.83-12.86,11.52-20.1,11.52c-10.18,0-17.42-6.03-17.42-17.15c0-19.83,20.1-40.2,38.59-40.2c5.63,0,9.65,2.28,12.19,6.83
		c1.74-4.15,5.36-6.83,8.58-6.83c3.22,0,5.09,1.88,5.09,4.56c0,1.88-1.61,4.96-5.49,11.26c-5.09,11.26-9.11,20.77-9.11,27.61
		c0,4.02,1.61,5.9,3.62,5.9c2.28,0,4.69-2.28,6.57-5.23c1.47-2.41,3.08-3.22,4.69-3.22c1.88,0,3.48,1.34,3.48,3.35
		c0,4.42-6.97,13.13-16.08,13.13C963.73,129.34,957.57,125.32,956.5,117.82z M939.21,120.76c5.36,0,10.85-5.63,15.95-13.13
		c4.56-6.97,7.64-13.13,10.72-20.77c-0.54-4.02-3.48-6.43-8.58-6.43c-10.45,0-24.39,17.15-24.39,32.29
		C932.91,118.08,935.59,120.76,939.21,120.76z"/>
</g>

</svg>
