<?xml version="1.0" encoding="UTF-8"?><svg xmlns="http://www.w3.org/2000/svg" viewBox="0 0 979.53 154.64"><defs><style>.d{fill:#fff;}</style></defs><g id="a"/><g id="b"><g id="c"><path class="d" d="M62.31,34.04c0-4.02-1.34-7.1-3.75-9.25-5.63,19.43-24.12,41.14-40.6,41.14C6.7,65.93,0,59.77,0,49.04,0,31.36,24.92,13.67,47.57,12.6c-.13-3.35-.54-4.82-1.07-5.76-.54-.8-.8-1.61-.8-2.14,0-2.55,2.55-4.69,5.63-4.69,4.69,0,8.98,4.69,8.98,13.67v.4c9.65,3.08,15.54,10.45,15.54,20.1,0,22.65-29.88,44.76-29.88,65.66,0,7.5,5.49,11.52,11.39,11.52,15.95,0,33.37-24.92,45.83-50.92,4.02-8.58,9.11-20.77,11.93-26.8,3.22-6.83,6.3-10.18,9.92-10.18s5.63,2.41,5.63,5.9c0,4.56-2.41,12.6-10.18,25.06-6.43,14.34-11.52,25.59-11.52,41.14,0,9.92,4.82,15.54,11.79,15.54,7.77,0,15.28-6.97,27.34-24.39,13.4-19.43,24.79-46.9,24.79-66.6,0-3.35-.8-3.75-.8-5.63,0-2.41,3.08-5.49,6.7-5.49,4.02,0,7.91,3.89,7.91,11.12,0,23.32-12.46,53.07-28.27,74.51-13.13,17.96-25.46,27.47-39.53,27.47-13,0-22.91-9.51-22.91-26.67v-.67c-12.33,16.35-26.53,27.34-40.6,27.34s-23.32-8.84-23.32-22.65c0-22.38,30.28-44.62,30.28-65.39Zm-15.95-12.06c-16.35,1.34-33.63,14.34-33.63,27.6,0,3.62,2.14,6.03,5.63,6.03,11.26,0,24.12-18.22,28.01-33.63ZM206.76,61.37c5.63,0,9.65,2.28,12.19,6.83,1.74-4.15,5.36-6.83,8.58-6.83s5.09,1.88,5.09,4.56c0,1.88-1.61,4.96-5.49,11.26-5.09,11.26-9.11,20.77-9.11,27.61,0,4.15,1.74,6.03,3.89,6.03,5.63,0,12.73-8.58,18.76-17.96,1.74-2.81,3.35-4.82,5.9-4.82,2.68,0,4.96,1.88,4.96,4.29,0,.94-.27,1.88-.8,2.68-8.17,12.6-18.89,23.72-30.42,23.72-7.37,0-13.53-4.02-14.61-11.52-5.9,6.83-12.86,11.52-20.1,11.52-10.18,0-17.42-6.03-17.42-17.15,0-19.97,20.1-40.2,38.59-40.2Zm-18.36,48.78c5.36,0,10.85-5.63,15.95-13.13,4.56-6.97,7.64-13.13,10.72-20.77-.54-4.02-3.48-6.43-8.58-6.43-10.45,0-24.39,17.02-24.39,32.29,0,5.36,2.68,8.04,6.3,8.04Zm91.92,8.58c-10.59,0-17.29-6.57-21.84-18.76-.4-1.21-.54-2.01-.54-2.95,0-2.55,1.61-4.29,5.09-4.96,13-2.55,24.52-12.19,24.52-20.37,0-1.34-.94-2.14-2.68-2.14-6.43,0-17.82,7.24-23.85,14.61-4.82,5.9-9.51,17.29-12.46,26.67-1.21,3.75-2.68,7.91-7.91,7.91-2.28,0-4.56-1.47-4.56-4.56,0-1.21,.13-1.88,.54-3.22,8.58-25.06,20.77-54.14,30.02-75.98,1.34-3.22,4.82-4.69,7.5-4.69,3.48,0,5.49,2.01,5.49,4.96s-2.55,7.77-7.24,15.28l-8.44,20.23c7.37-5.49,15.68-9.38,22.24-9.38,8.17,0,13.67,4.15,13.67,10.85,0,10.05-13.4,20.77-29.08,25.06,2.41,8.04,6.83,13.13,11.39,13.13,6.03,0,14.07-8.17,20.23-17.55,1.74-2.81,3.35-4.82,5.9-4.82,2.68,0,4.96,1.88,4.96,4.29,0,.94-.27,1.88-.8,2.68-8.17,12.87-18.36,23.72-32.16,23.72Zm59.36-57.35c5.63,0,9.65,2.28,12.19,6.83,1.74-4.15,5.36-6.83,8.58-6.83s5.09,1.88,5.09,4.56c0,1.88-1.61,4.96-5.49,11.26-5.09,11.26-9.11,20.77-9.11,27.61,0,4.15,1.74,6.03,3.89,6.03,5.63,0,12.73-8.58,18.76-17.96,1.74-2.81,3.35-4.82,5.9-4.82,2.68,0,4.96,1.88,4.96,4.29,0,.94-.27,1.88-.8,2.68-8.17,12.6-18.89,23.72-30.42,23.72-7.37,0-13.53-4.02-14.61-11.52-5.9,6.83-12.86,11.52-20.1,11.52-10.18,0-17.42-6.03-17.42-17.15,0-19.97,20.1-40.2,38.59-40.2Zm-18.36,48.78c5.36,0,10.85-5.63,15.95-13.13,4.56-6.97,7.64-13.13,10.72-20.77-.54-4.02-3.48-6.43-8.58-6.43-10.45,0-24.39,17.02-24.39,32.29,0,5.36,2.68,8.04,6.3,8.04Zm96.35,8.58c-8.71,0-14.2-5.09-14.2-13.67,0-10.99,12.19-24.12,12.19-32.83,0-1.34-.94-2.01-2.55-2.01-5.76,0-14.47,8.84-20.5,16.08-5.36,6.3-11.39,17.55-14.47,27.2-.8,2.55-2.28,5.23-6.3,5.23-2.55,0-5.09-1.47-5.09-4.96,0-1.21,.13-1.88,.54-3.22,4.69-14.47,10.99-30.55,16.08-42.75,1.61-3.89,4.29-5.76,7.5-5.76s5.36,2.01,5.36,4.69c0,1.07-.67,2.55-1.74,4.56l-1.88,4.56c7.24-7.91,15.95-14.47,22.91-14.47,7.37,0,12.46,4.56,12.46,11.39,0,10.99-12.33,22.38-12.33,33.23,0,3.08,1.47,4.82,3.62,4.82,5.63,0,12.86-8.58,18.89-17.96,1.74-2.81,3.35-4.82,5.9-4.82,2.68,0,4.96,1.88,4.96,4.29,0,.94-.27,1.88-.8,2.68-8.17,12.6-19.03,23.72-30.55,23.72Zm56.28-11.52c-5.9,6.83-12.86,11.52-20.1,11.52-10.18,0-17.42-6.03-17.42-17.15,0-19.83,20.1-40.2,38.59-40.2,5.63,0,9.65,2.28,12.19,6.83,1.74-4.15,5.36-6.83,8.58-6.83s5.09,1.88,5.09,4.56c0,1.88-1.61,4.96-5.49,11.26-5.09,11.26-9.11,20.77-9.11,27.61,0,4.02,1.61,5.9,3.62,5.9,2.28,0,4.69-2.28,6.57-5.23,1.47-2.41,3.08-3.22,4.69-3.22,1.88,0,3.48,1.34,3.48,3.35,0,4.42-6.97,13.13-16.08,13.13-7.37,0-13.53-4.02-14.61-11.52Zm-17.29,2.95c5.36,0,10.85-5.63,15.95-13.13,4.56-6.97,7.64-13.13,10.72-20.77-.54-4.02-3.48-6.43-8.58-6.43-10.45,0-24.39,17.15-24.39,32.29,0,5.36,2.68,8.04,6.3,8.04Zm153.83-17.29c1.74-2.81,3.35-4.82,5.9-4.82,2.68,0,4.96,1.88,4.96,4.29,0,.94-.27,1.88-.8,2.68-11.66,17.96-31.89,29.62-54,29.62-23.99,0-41.67-14.07-41.67-38.59,0-39.4,39.53-73.7,72.09-73.7,3.62,0,6.97,.4,10.05,1.07,6.83-4.96,14.47-8.04,20.37-8.04,4.15,0,6.3,2.01,6.3,5.36,0,2.41-1.61,3.35-6.83,4.96-2.14,.67-4.56,1.74-7.24,3.22,5.9,4.56,8.98,10.99,8.98,18.36,0,13-9.65,21.98-20.77,21.98s-18.36-6.43-18.36-17.02c0-6.97,2.95-13.53,7.5-19.3-26.13,.13-58.16,29.88-58.16,63.12,0,17.29,11.26,27.87,28.68,27.87,14.74,0,33.77-6.83,43.01-21.04Zm-.54-66.87c-4.42,4.42-7.77,10.05-7.77,16.21,0,4.42,2.28,6.7,5.76,6.7,4.69,0,8.17-5.76,8.17-11.39,0-5.09-2.14-8.98-6.16-11.52Zm49.98,92.73c-8.71,0-14.2-5.09-14.2-13.67,0-10.99,12.19-24.12,12.19-32.83,0-1.21-.94-2.01-2.55-2.01-5.76,0-14.47,8.84-20.5,16.08-5.36,6.3-11.39,17.55-14.47,27.2-.8,2.55-2.28,5.23-6.3,5.23-2.55,0-5.09-1.47-5.09-4.96,0-1.21,.13-1.88,.54-3.22,8.17-25.19,19.97-52.93,28.94-74.24,1.74-4.02,4.56-6.03,7.91-6.03s5.49,2.01,5.49,4.69c0,1.88-1.34,5.36-6.3,13.53l-11.52,28.14c7.37-8.17,16.35-15.28,23.58-15.28s12.6,4.56,12.6,11.39c0,10.99-12.33,22.38-12.33,33.23,0,3.08,1.47,4.82,3.62,4.82,5.63,0,12.86-8.58,18.89-17.96,1.74-2.81,3.35-4.82,5.9-4.82,2.68,0,4.96,1.88,4.96,4.29,0,.94-.27,1.88-.8,2.68-8.17,12.6-19.03,23.72-30.55,23.72Zm33.63,0c-9.25,0-15.28-4.96-15.28-14.87,0-8.98,5.36-21.84,10.18-31.09,4.56-8.71,7.91-11.39,11.39-11.39,3.08,0,5.09,1.88,5.09,4.56,0,2.14-1.74,5.9-6.83,14.07-4.56,9.51-7.5,17.55-7.5,24.12,0,4.82,2.01,6.7,4.56,6.7,5.63,0,12.86-8.58,18.89-17.96,1.74-2.81,3.35-4.82,5.9-4.82,2.68,0,4.96,1.88,4.96,4.29,0,.94-.27,1.88-.8,2.68-8.17,12.6-19.03,23.72-30.55,23.72Zm16.08-78.66c4.15,0,6.83,2.41,6.83,6.3,0,3.62-3.22,8.71-9.25,8.71-4.02,0-7.1-2.41-7.1-6.57,0-4.42,4.56-8.44,9.51-8.44Zm39.53,85.23c-7.1,16.88-18.36,29.35-31.49,29.35-8.71,0-15.95-4.69-15.95-11.79,0-11.79,13.27-15.68,37.12-22.51,1.61-4.15,2.68-7.64,3.75-10.85-5.09,5.63-10.59,9.25-16.21,9.25-8.71,0-14.34-5.09-14.34-14.87,0-8.84,5.63-21.71,10.45-31.09,4.42-8.71,7.5-11.39,11.39-11.39,3.08,0,5.09,1.88,5.09,4.56,0,2.14-1.74,5.9-6.83,14.07-4.56,9.51-7.64,17.55-7.64,24.12,0,4.29,2.28,5.9,4.02,5.9,4.96,0,9.92-5.63,15.01-13,4.69-6.7,9.11-16.88,12.73-25.33,3.48-8.17,6.57-10.32,10.45-10.32,3.08,0,5.09,1.88,5.09,4.56,0,2.14-1.74,5.76-6.7,13.67-3.08,7.5-6.3,18.63-8.44,24.79l-3.48,9.92c8.71-5.09,16.75-13,22.24-21.44,1.74-2.81,3.35-4.82,5.9-4.82,2.68,0,4.96,1.88,4.96,4.29,0,.94-.27,1.88-.8,2.68-8.17,12.73-18.22,23.45-36.31,30.29Zm-13.8,3.89c-13.94,4.02-21.98,7.37-21.98,13.67,0,2.68,2.01,4.02,4.42,4.02,5.49,0,12.46-6.83,17.55-17.69Zm88.97-17.02c-3.22,0-6.3-.4-8.84-1.07-5.9,4.69-12.86,7.64-19.83,7.64-12.33,0-21.17-6.7-21.17-19.43,0-20.23,19.7-37.92,36.58-37.92,13.13,0,20.9,6.83,20.9,18.63,0,8.31-3.75,16.88-9.38,23.99,.94,.13,1.88,.27,3.08,.27,5.49,0,10.99-3.35,16.21-11.39,1.74-2.81,3.35-4.82,5.9-4.82,2.68,0,4.96,1.88,4.96,4.29,0,.94-.27,1.88-.8,2.68-7.64,11.66-16.88,17.15-27.6,17.15Zm-13.53-41.94c-9.25,0-22.38,14.61-22.38,29.48,0,6.83,3.89,10.18,8.71,10.18,3.35,0,6.7-1.61,9.78-4.15-.4-.67-.54-1.34-.54-1.88,0-3.35,2.95-5.76,6.83-6.03,3.22-5.36,5.23-11.93,5.23-18.09,0-6.57-3.08-9.51-7.64-9.51Zm68.2-8.84c5.23,0,9.11,2.01,11.66,6.03,3.89-10.18,9.51-23.85,12.6-30.95,2.01-4.29,5.63-6.16,8.58-6.16s4.96,1.88,4.96,4.29c0,2.95-2.01,7.91-7.5,17.02-3.22,7.24-7.37,17.02-10.59,25.59-5.09,13-8.44,22.65-8.44,27.61,0,4.15,1.74,6.03,3.89,6.03,5.63,0,12.73-8.58,18.76-17.96,1.74-2.81,3.35-4.82,5.9-4.82,2.68,0,4.96,1.88,4.96,4.29,0,.94-.27,1.88-.8,2.68-8.17,12.6-16.75,23.72-30.42,23.72-7.37,0-13.53-4.02-14.61-11.52-5.9,6.83-12.86,11.52-20.1,11.52-10.18,0-17.42-6.03-17.42-17.15,0-19.83,20.1-40.2,38.59-40.2Zm-18.36,48.78c5.36,0,10.85-5.63,15.95-13.13,4.56-6.97,7.64-13.13,10.72-20.77-.54-4.02-3.48-6.43-8.58-6.43-10.45,0-24.39,17.15-24.39,32.29,0,5.36,2.68,8.04,6.3,8.04Zm88.17-2.95c-5.9,6.83-12.86,11.52-20.1,11.52-10.18,0-17.42-6.03-17.42-17.15,0-19.83,20.1-40.2,38.59-40.2,5.63,0,9.65,2.28,12.19,6.83,1.74-4.15,5.36-6.83,8.58-6.83s5.09,1.88,5.09,4.56c0,1.88-1.61,4.96-5.49,11.26-5.09,11.26-9.11,20.77-9.11,27.61,0,4.02,1.61,5.9,3.62,5.9,2.28,0,4.69-2.28,6.57-5.23,1.47-2.41,3.08-3.22,4.69-3.22,1.88,0,3.48,1.34,3.48,3.35,0,4.42-6.97,13.13-16.08,13.13-7.37,0-13.53-4.02-14.61-11.52Zm-17.29,2.95c5.36,0,10.85-5.63,15.95-13.13,4.56-6.97,7.64-13.13,10.72-20.77-.54-4.02-3.48-6.43-8.58-6.43-10.45,0-24.39,17.15-24.39,32.29,0,5.36,2.68,8.04,6.3,8.04Z"/></g></g></svg>
